<?xml version="1.0" encoding="UTF-8"?>
<svg id="svg1" xmlns="http://www.w3.org/2000/svg" version="1.1" xmlns:inkscape="http://www.inkscape.org/namespaces/inkscape" xmlns:sodipodi="http://sodipodi.sourceforge.net/DTD/sodipodi-0.dtd" xmlns:svg="http://www.w3.org/2000/svg" viewBox="0 0 1000 1000">
  <!-- Generator: Adobe Illustrator 29.7.1, SVG Export Plug-In . SVG Version: 2.1.1 Build 8)  -->
  <defs>
    <style>
      .st0 {
        fill: #fff;
      }
    </style>
  </defs>
  <sodipodi:namedview id="namedview1" bordercolor="#000000" borderopacity="0.25" inkscape:current-layer="layer1" inkscape:cx="681" inkscape:cy="467.5" inkscape:deskcolor="#d1d1d1" inkscape:document-units="mm" inkscape:pagecheckerboard="0" inkscape:pageopacity="0.0" inkscape:showpageshadow="2" inkscape:window-height="1494" inkscape:window-maximized="1" inkscape:window-width="2560" inkscape:window-x="-11" inkscape:window-y="1609" inkscape:zoom="1" pagecolor="#ffffff"/>
  <g id="g217">
    <g>
      <path class="st0" d="M950,362.5c0,49.59-18.21,95.06-48.27,130.07-2.18,2.54-4.41,5.01-6.71,7.43-11.43,12.05-24.34,22.69-38.44,31.61-2.9,1.84-5.85,3.6-8.85,5.29-28.92,16.29-62.27,25.6-97.73,25.6s-68.77-9.3-97.69-25.57c14.52-14.04,32.07-24.95,51.11-31.65,14.65,4.74,30.3,7.3,46.58,7.3s31.87-2.55,46.49-7.27c4.77-1.54,9.44-3.32,13.98-5.31,17.35-7.6,32.96-18.38,46.11-31.61,2.37-2.38,4.66-4.85,6.86-7.39,22.85-26.31,36.64-60.73,36.64-98.5,0-83.18-66.9-150.09-150.08-150.09-14.75,0-29,2.11-42.44,6.04-2.53-16.46-6.99-32.62-13.28-48.03,17.7-5.16,36.4-7.92,55.72-7.92,110.16,0,200,89.84,200,200Z"/>
      <path class="st0" d="M901.73,507.43c30.06,35.01,48.27,80.48,48.27,130.07,0,110.16-89.84,200-200,200-19.33,0-38.03-2.77-55.73-7.92-3.21-.94-6.39-1.95-9.53-3.04-15.91-5.52-30.92-13-44.73-22.14-2.89-1.91-5.73-3.9-8.52-5.95-49.37-36.48-81.49-95.08-81.49-160.95,0-6.1.28-12.13.82-18.09,16.47,6.36,31.77,15.79,44.72,27.93,1.74,1.62,3.44,3.28,5.09,4.98,3.26,33.6,17.5,63.88,39.11,87.22,3.28,3.55,6.73,6.94,10.35,10.16,13.88,12.36,30.08,22.16,47.9,28.7,3.17,1.17,6.4,2.23,9.68,3.18,13.41,3.91,27.62,6,42.33,6,83.18,0,150.08-66.9,150.08-150.08,0-37.72-13.75-72.09-36.55-98.4,7.91-5.09,15.46-10.72,22.58-16.89,5.46-4.65,10.67-9.59,15.62-14.78Z"/>
      <path class="st0" d="M847.68,463.07c-14.49,14.07-32.01,25.03-51.11,31.65-14.65-4.74-30.3-7.3-46.57-7.3s-31.88,2.55-46.52,7.28c-4.76,1.54-9.42,3.31-13.95,5.3-17.35,7.6-32.96,18.38-46.11,31.61-2.37,2.39-4.66,4.86-6.87,7.4-9.06,10.43-16.69,22.13-22.6,34.81-13.94-9.05-28.94-16.48-44.6-22.02,7.67-16.07,17.42-30.97,28.9-44.34,2.18-2.54,4.42-5.03,6.73-7.46,11.43-12.05,24.34-22.69,38.44-31.61,2.92-1.85,5.89-3.62,8.91-5.32,28.91-16.28,62.24-25.57,97.67-25.57s68.77,9.3,97.68,25.57Z"/>
      <path class="st0" d="M699.19,231.87c.54,5.97.81,12.02.81,18.13,0,65.89-32.14,124.51-81.55,160.99-2.78-7.57-4.89-15.39-6.26-23.37-2.17-11.73-2.76-23.74-1.86-35.64,21.56-23.32,35.77-53.55,39.04-87.1.46-4.8.71-9.66.72-14.58v-.3c0-19.21-3.57-37.55-10.08-54.4-1.22-3.15-2.55-6.26-3.97-9.3-23.86-51.14-75.66-86.39-136.04-86.39s-112.19,35.26-136.05,86.41c-13.94-9.07-28.93-16.51-44.59-22.04,32.19-67.47,101.12-114.28,180.64-114.28s148.5,46.85,180.68,114.37c1.43,2.99,2.78,6.02,4.06,9.09,6.33,15.2,10.84,31.34,13.24,48.14.49,3.39.89,6.82,1.21,10.27Z"/>
      <path class="st0" d="M700,750c0,6.11-.27,12.15-.81,18.12-11.16-4.28-21.76-9.98-31.4-17.06-6.6-4.76-12.77-10.1-18.42-15.94-3.27-33.54-17.48-63.76-39.03-87.08-3.3-3.58-6.78-7-10.42-10.24-13.88-12.35-30.09-22.16-47.9-28.7-3.17-1.16-6.39-2.22-9.66-3.17-13.42-3.91-27.64-6.01-42.36-6.01s-29,2.1-42.44,6.03c-2.52-16.46-6.97-32.63-13.26-48.04,17.69-5.14,36.38-7.91,55.7-7.91s38.06,2.77,55.77,7.94c3.2.93,6.36,1.94,9.49,3.02,15.91,5.52,30.92,13,44.74,22.14,2.88,1.91,5.71,3.89,8.49,5.94,49.39,36.48,81.51,95.09,81.51,160.96Z"/>
      <path class="st0" d="M636.05,813.69c13.95,9.03,28.96,16.43,44.62,21.98-32.19,67.5-101.14,114.33-180.67,114.33s-148.48-46.84-180.67-114.34c-1.43-3-2.79-6.04-4.07-9.12-6.33-15.2-10.84-31.34-13.24-48.14-.49-3.4-.89-6.82-1.2-10.27-.54-5.98-.82-12.02-.82-18.13,0-65.89,32.14-124.51,81.54-160.98,6.96,18.8,9.61,39.07,8.1,59.03-21.54,23.32-35.74,53.54-39,87.07-.47,4.8-.71,9.66-.72,14.58v.3c0,19.21,3.56,37.55,10.08,54.4,1.23,3.19,2.56,6.32,4,9.39,23.88,51.09,75.66,86.29,136,86.29s112.19-35.25,136.05-86.39Z"/>
      <path class="st0" d="M631.55,201.52c6.83,18.74,9.6,39.09,8.1,59.02-21.54,23.32-35.74,53.53-39.01,87.05-.47,4.81-.71,9.68-.72,14.61v.3c0,19.21,3.57,37.55,10.08,54.4,1.23,3.19,2.56,6.32,4,9.39,5.91,12.64,13.52,24.29,22.54,34.69-13.96,8.96-26.87,19.54-38.32,31.54-11.48-13.39-21.23-28.29-28.9-44.38-1.42-2.99-2.78-6.03-4.06-9.1-6.33-15.2-10.84-31.34-13.24-48.14-.49-3.39-.89-6.8-1.2-10.25-.54-5.98-.82-12.03-.82-18.15,0-65.89,32.14-124.51,81.55-160.98Z"/>
      <path class="st0" d="M542.4,394.07c2.52,16.45,7.03,32.6,13.36,48-17.71,5.16-36.42,7.93-55.76,7.93s-38.03-2.76-55.72-7.92c-3.22-.93-6.4-1.95-9.54-3.04-15.91-5.52-30.92-12.99-44.74-22.14-2.87-1.9-5.69-3.87-8.45-5.91-49.41-36.47-81.55-95.1-81.55-160.99,0-6.1.28-12.14.82-18.11,18.07,6.99,34.73,17.67,48.37,31.48l1.44,1.47c3.26,33.56,17.47,63.8,39.04,87.14,3.3,3.57,6.78,6.98,10.41,10.22,13.88,12.36,30.09,22.17,47.9,28.7,3.18,1.17,6.4,2.23,9.67,3.18,13.42,3.91,27.63,6,42.35,6s28.96-2.1,42.4-6.01Z"/>
      <path class="st0" d="M450,362.5c0,6.11-.28,12.16-.82,18.13-4.67-1.8-9.25-3.85-13.69-6.16-13.42-6.88-25.65-16.03-36.12-26.82-3.27-33.56-17.48-63.8-39.04-87.13-3.3-3.57-6.78-6.99-10.41-10.22-13.88-12.36-30.09-22.17-47.9-28.7-3.17-1.17-6.39-2.22-9.65-3.18-13.43-3.91-27.64-6.01-42.37-6.01-83.18,0-150.09,66.91-150.09,150.09,0,37.76,13.79,72.16,36.63,98.48-13.96,8.95-26.87,19.54-38.32,31.53-30.04-35-48.22-80.45-48.22-130.01,0-110.16,89.84-200,200-200,19.34,0,38.06,2.77,55.77,7.93,3.2.93,6.36,1.94,9.49,3.03,15.91,5.52,30.92,12.99,44.74,22.14,2.89,1.91,5.72,3.9,8.51,5.95,49.37,36.48,81.49,95.08,81.49,160.95Z"/>
      <path class="st0" d="M449.18,619.35c.54,5.98.82,12.03.82,18.15,0,65.88-32.13,124.5-81.53,160.97-1.52-4.17-2.83-8.42-3.92-12.73-3.97-15.05-5.37-30.74-4.22-46.26,21.56-23.33,35.76-53.55,39.03-87.09.47-4.8.71-9.67.72-14.59v-.3c0-19.21-3.56-37.55-10.08-54.4-1.22-3.16-2.54-6.26-3.96-9.31-5.9-12.63-13.5-24.29-22.51-34.69,5.66-3.66,11.14-7.6,16.4-11.82,7.73-6.09,15.01-12.73,21.79-19.86,11.51,13.4,21.28,28.34,28.96,44.45,1.43,2.99,2.78,6.02,4.06,9.09,6.33,15.2,10.84,31.34,13.24,48.14.49,3.39.89,6.81,1.2,10.25Z"/>
      <path class="st0" d="M430.66,448.17c-7.67,16.1-17.44,31.02-28.94,44.41-2.17,2.53-4.4,5.01-6.7,7.42-11.43,12.05-24.34,22.69-38.44,31.61-2.89,1.83-5.83,3.59-8.82,5.28-28.94,16.3-62.29,25.61-97.76,25.61s-68.77-9.3-97.69-25.58c8.79-8.53,18.69-15.93,29.42-21.88,6.84-3.84,14.2-7.12,21.73-9.75,14.64,4.74,30.28,7.29,46.54,7.29s31.86-2.55,46.48-7.27c4.78-1.54,9.45-3.31,14-5.31,17.35-7.6,32.96-18.38,46.1-31.61,2.37-2.38,4.66-4.85,6.87-7.39,9.05-10.43,16.68-22.13,22.6-34.81,13.95,9.04,28.96,16.44,44.61,21.98Z"/>
      <path class="st0" d="M347.7,463.08c-14.5,14.17-32.1,24.95-51.17,31.63-14.63-4.74-30.27-7.29-46.53-7.29s-31.88,2.55-46.52,7.28c-4.76,1.54-9.42,3.31-13.95,5.3-17.35,7.6-32.96,18.38-46.11,31.61-2.37,2.39-4.67,4.86-6.88,7.4-22.84,26.32-36.63,60.73-36.63,98.49,0,83.18,66.91,150.08,150.09,150.08,14.74,0,28.96-2.1,42.39-6.01,2.53,16.45,7.05,32.6,13.37,48-17.71,5.16-36.42,7.93-55.76,7.93-110.16,0-200-89.84-200-200,0-49.57,18.19-95.03,48.24-130.04,2.19-2.54,4.43-5.03,6.74-7.46,11.43-12.05,24.34-22.69,38.44-31.61,2.91-1.84,5.87-3.61,8.88-5.31,28.92-16.28,62.26-25.58,97.7-25.58s68.78,9.3,97.7,25.58Z"/>
    </g>
  </g>
</svg>