<svg id="fi_3822755" enable-background="new 0 0 511.948 511.948" height="512" viewBox="0 0 511.948 511.948" width="512" xmlns="http://www.w3.org/2000/svg"><g><g id="Page-1_23_"><g id="_x30_24---Text-Magnification"><path id="Shape_37_" d="m370.203 438.175-141.153-365.109c-2.585-6.819-9.127-11.321-16.419-11.299h-54.554c-7.279.021-13.799 4.508-16.419 11.299l-141.066 365.109c-1.046 2.711-.691 5.762.949 8.161 1.64 2.398 4.355 3.836 7.261 3.845h55.702c3.663-.004 6.952-2.243 8.298-5.65l29.396-76.977c1.31-3.396 4.57-5.639 8.21-5.65h149.892c3.663.004 6.952 2.243 8.298 5.65l29.396 76.977c1.31 3.396 4.57 5.639 8.21 5.65h55.702c2.91-.009 5.631-1.441 7.285-3.835s2.032-5.445 1.012-8.171zm-137.975-138.063h-93.749c-3.064.012-5.935-1.494-7.667-4.021-1.732-2.528-2.1-5.749-.984-8.602l46.874-122.615c1.34-3.619 4.792-6.022 8.651-6.022 3.86 0 7.311 2.403 8.651 6.022l46.963 122.615c1.077 2.868.679 6.081-1.064 8.6-1.744 2.518-4.612 4.022-7.675 4.023z"></path><path id="Shape_36_" d="m511.356 438.175-71.592-188.469c-2.603-6.856-9.174-11.389-16.508-11.388h-25.6c-7.334-.001-13.904 4.532-16.508 11.388l-32.132 84.568 21.363 55.437c1.365-.886 2.963-1.347 4.59-1.324h70.974c3.618-.003 6.871 2.201 8.21 5.561l20.303 50.67c1.339 3.361 4.592 5.565 8.21 5.561h20.48c2.905-.009 5.621-1.446 7.261-3.845 1.64-2.396 1.995-5.448.949-8.159zm-79.713-85.098h-42.284c-1.498.012-2.903-.729-3.738-1.973s-.99-2.824-.411-4.207l21.098-52.789c.634-1.746 2.292-2.908 4.149-2.908s3.515 1.162 4.149 2.908l21.186 52.789c.56 1.382.397 2.953-.435 4.191-.831 1.239-2.223 1.984-3.714 1.989z"></path></g></g></g></svg>